<mxfile host="65bd71144e">
    <diagram id="ik_pNm_FBd28u994E-qV" name="Страница 1">
        <mxGraphModel dx="820" dy="421" grid="1" gridSize="10" guides="1" tooltips="1" connect="1" arrows="1" fold="1" page="1" pageScale="1" pageWidth="827" pageHeight="1169" math="0" shadow="0">
            <root>
                <mxCell id="0"/>
                <mxCell id="1" parent="0"/>
                <mxCell id="-berJPTAOPwVZkPmGQTr-1" value="" style="endArrow=none;html=1;rounded=0;" parent="1" edge="1">
                    <mxGeometry width="50" height="50" relative="1" as="geometry">
                        <mxPoint x="180" y="780" as="sourcePoint"/>
                        <mxPoint x="180" y="60" as="targetPoint"/>
                    </mxGeometry>
                </mxCell>
                <mxCell id="-berJPTAOPwVZkPmGQTr-2" value="" style="endArrow=none;html=1;rounded=0;" parent="1" edge="1">
                    <mxGeometry width="50" height="50" relative="1" as="geometry">
                        <mxPoint x="400" y="780" as="sourcePoint"/>
                        <mxPoint x="400" y="60" as="targetPoint"/>
                    </mxGeometry>
                </mxCell>
                <mxCell id="-berJPTAOPwVZkPmGQTr-3" value="&lt;font style=&quot;font-size: 24px;&quot;&gt;Сделать&lt;/font&gt;" style="rounded=1;whiteSpace=wrap;html=1;fillColor=#d80073;strokeColor=#A50040;fontColor=#ffffff;" parent="1" vertex="1">
                    <mxGeometry x="23.75" y="70" width="120" height="60" as="geometry"/>
                </mxCell>
                <mxCell id="-berJPTAOPwVZkPmGQTr-4" value="&lt;font style=&quot;font-size: 24px;&quot;&gt;В работе&lt;/font&gt;" style="rounded=1;whiteSpace=wrap;html=1;fillColor=#d80073;strokeColor=#A50040;fontColor=#ffffff;" parent="1" vertex="1">
                    <mxGeometry x="230" y="70" width="150" height="60" as="geometry"/>
                </mxCell>
                <mxCell id="-berJPTAOPwVZkPmGQTr-5" value="&lt;font style=&quot;font-size: 24px;&quot;&gt;Закончено&lt;/font&gt;" style="rounded=1;whiteSpace=wrap;html=1;fillColor=#d80073;strokeColor=#A50040;fontColor=#ffffff;" parent="1" vertex="1">
                    <mxGeometry x="660" y="70" width="140" height="60" as="geometry"/>
                </mxCell>
                <mxCell id="-berJPTAOPwVZkPmGQTr-12" value="&lt;font style=&quot;font-size: 12px;&quot;&gt;Java д/з 4 семинара&lt;/font&gt;" style="whiteSpace=wrap;html=1;aspect=fixed;fontSize=24;fillColor=#ffcd28;strokeColor=#d79b00;gradientColor=#ffa500;" parent="1" vertex="1">
                    <mxGeometry x="35" y="140" width="97.5" height="97.5" as="geometry"/>
                </mxCell>
                <mxCell id="-berJPTAOPwVZkPmGQTr-13" value="&lt;font style=&quot;font-size: 12px;&quot;&gt;Конфликтология 4 лекция просмотреть&lt;/font&gt;" style="whiteSpace=wrap;html=1;aspect=fixed;fontSize=24;fillColor=#ffcd28;strokeColor=#d79b00;gradientColor=#ffa500;" parent="1" vertex="1">
                    <mxGeometry x="35" y="360" width="97.5" height="97.5" as="geometry"/>
                </mxCell>
                <mxCell id="-berJPTAOPwVZkPmGQTr-20" value="&lt;font style=&quot;font-size: 12px;&quot;&gt;Конфликтология 4 семинар просмотреть&lt;/font&gt;" style="whiteSpace=wrap;html=1;aspect=fixed;fontSize=24;fillColor=#ffcd28;strokeColor=#d79b00;gradientColor=#ffa500;" parent="1" vertex="1">
                    <mxGeometry x="35" y="250" width="97.5" height="97.5" as="geometry"/>
                </mxCell>
                <mxCell id="wIr-IOeT461xTiYAvQXx-1" value="&lt;font style=&quot;font-size: 12px;&quot;&gt;Конфликтология д/з 4 семинара&lt;/font&gt;" style="whiteSpace=wrap;html=1;aspect=fixed;fontSize=24;fillColor=#f8cecc;strokeColor=#b85450;gradientColor=#ea6b66;" parent="1" vertex="1">
                    <mxGeometry x="240" y="280" width="97.5" height="97.5" as="geometry"/>
                </mxCell>
                <mxCell id="wIr-IOeT461xTiYAvQXx-2" value="&lt;font style=&quot;font-size: 12px;&quot;&gt;Конфликтология 4 лекция просмотреть&lt;/font&gt;" style="whiteSpace=wrap;html=1;aspect=fixed;fontSize=24;fillColor=#ffcd28;strokeColor=#d79b00;gradientColor=#ffa500;" parent="1" vertex="1">
                    <mxGeometry x="35" y="470" width="97.5" height="97.5" as="geometry"/>
                </mxCell>
                <mxCell id="wIr-IOeT461xTiYAvQXx-3" value="&lt;font style=&quot;font-size: 12px;&quot;&gt;Гибкие методологии д/з 5 семинара&lt;/font&gt;" style="whiteSpace=wrap;html=1;aspect=fixed;fontSize=24;fillColor=#ffcd28;strokeColor=#d79b00;gradientColor=#ffa500;" parent="1" vertex="1">
                    <mxGeometry x="460" y="160" width="97.5" height="97.5" as="geometry"/>
                </mxCell>
                <mxCell id="wIr-IOeT461xTiYAvQXx-4" value="&lt;font style=&quot;font-size: 25px;&quot;&gt;На проверку&lt;/font&gt;" style="rounded=1;whiteSpace=wrap;html=1;fillColor=#d80073;strokeColor=#A50040;fontColor=#ffffff;" parent="1" vertex="1">
                    <mxGeometry x="440" y="70" width="150" height="60" as="geometry"/>
                </mxCell>
                <mxCell id="wIr-IOeT461xTiYAvQXx-5" value="" style="endArrow=none;html=1;rounded=0;" parent="1" edge="1">
                    <mxGeometry width="50" height="50" relative="1" as="geometry">
                        <mxPoint x="620" y="780" as="sourcePoint"/>
                        <mxPoint x="620" y="60" as="targetPoint"/>
                    </mxGeometry>
                </mxCell>
                <mxCell id="wIr-IOeT461xTiYAvQXx-6" value="&lt;font style=&quot;font-size: 12px;&quot;&gt;Конфликтология д/з 3 семинара&lt;/font&gt;" style="whiteSpace=wrap;html=1;aspect=fixed;fontSize=24;fillColor=#f8cecc;strokeColor=#b85450;gradientColor=#ea6b66;" parent="1" vertex="1">
                    <mxGeometry x="240" y="160" width="97.5" height="97.5" as="geometry"/>
                </mxCell>
                <mxCell id="wIr-IOeT461xTiYAvQXx-7" value="&lt;font style=&quot;font-size: 12px;&quot;&gt;Java д/з 3 семинара &lt;/font&gt;" style="whiteSpace=wrap;html=1;aspect=fixed;fontSize=24;fillColor=#ffcd28;strokeColor=#d79b00;gradientColor=#ffa500;" parent="1" vertex="1">
                    <mxGeometry x="240" y="400" width="97.5" height="97.5" as="geometry"/>
                </mxCell>
                <mxCell id="wIr-IOeT461xTiYAvQXx-8" value="&lt;font style=&quot;font-size: 12px;&quot;&gt;Конфликтология д/з 2 семинара&lt;/font&gt;" style="whiteSpace=wrap;html=1;aspect=fixed;fontSize=24;fillColor=#f8cecc;strokeColor=#b85450;gradientColor=#ea6b66;" parent="1" vertex="1">
                    <mxGeometry x="670" y="160" width="97.5" height="97.5" as="geometry"/>
                </mxCell>
                <mxCell id="wIr-IOeT461xTiYAvQXx-9" value="&lt;font style=&quot;font-size: 12px;&quot;&gt;Поиск вакансий&lt;/font&gt;" style="whiteSpace=wrap;html=1;aspect=fixed;fontSize=24;fillColor=#dae8fc;strokeColor=#6c8ebf;gradientColor=#7ea6e0;" parent="1" vertex="1">
                    <mxGeometry x="35" y="585" width="97.5" height="97.5" as="geometry"/>
                </mxCell>
                <mxCell id="2" value="" style="whiteSpace=wrap;html=1;aspect=fixed;fontSize=24;fillColor=#f8cecc;strokeColor=#b85450;gradientColor=#ea6b66;" vertex="1" parent="1">
                    <mxGeometry x="490" y="420" width="50" height="50" as="geometry"/>
                </mxCell>
                <mxCell id="3" value="" style="whiteSpace=wrap;html=1;aspect=fixed;fontSize=24;fillColor=#ffcd28;strokeColor=#d79b00;gradientColor=#ffa500;" vertex="1" parent="1">
                    <mxGeometry x="490" y="347.5" width="50" height="50" as="geometry"/>
                </mxCell>
                <mxCell id="4" value="" style="whiteSpace=wrap;html=1;aspect=fixed;fontSize=24;fillColor=#dae8fc;strokeColor=#6c8ebf;gradientColor=#7ea6e0;" vertex="1" parent="1">
                    <mxGeometry x="490" y="490" width="50" height="50" as="geometry"/>
                </mxCell>
                <mxCell id="5" value="" style="whiteSpace=wrap;html=1;aspect=fixed;fontSize=24;fillColor=#fff2cc;strokeColor=#d6b656;gradientColor=#ffd966;" vertex="1" parent="1">
                    <mxGeometry x="490" y="280" width="50" height="50" as="geometry"/>
                </mxCell>
                <mxCell id="6" value="- Стандартный класс" style="text;strokeColor=none;fillColor=none;html=1;fontSize=24;fontStyle=1;verticalAlign=middle;align=center;" vertex="1" parent="1">
                    <mxGeometry x="557" y="280" width="270" height="40" as="geometry"/>
                </mxCell>
                <mxCell id="7" value="&lt;font face=&quot;sans-serif&quot;&gt;&lt;span style=&quot;font-size: 27.1378px&quot;&gt;- Класс с фиксированной датой&lt;/span&gt;&lt;/font&gt;" style="text;strokeColor=none;fillColor=none;html=1;fontSize=24;fontStyle=1;verticalAlign=middle;align=center;" vertex="1" parent="1">
                    <mxGeometry x="540" y="352.5" width="490" height="40" as="geometry"/>
                </mxCell>
                <mxCell id="9" value="- Ускоренный класс" style="text;strokeColor=none;fillColor=none;html=1;fontSize=24;fontStyle=1;verticalAlign=middle;align=center;" vertex="1" parent="1">
                    <mxGeometry x="557.5" y="425" width="270" height="40" as="geometry"/>
                </mxCell>
                <mxCell id="10" value="- Нематериальный класс" style="text;strokeColor=none;fillColor=none;html=1;fontSize=24;fontStyle=1;verticalAlign=middle;align=center;" vertex="1" parent="1">
                    <mxGeometry x="570" y="495" width="310" height="40" as="geometry"/>
                </mxCell>
            </root>
        </mxGraphModel>
    </diagram>
</mxfile>